<svg width="24" height="24" viewBox="0 0 24 24" fill="none" xmlns="http://www.w3.org/2000/svg">
<path fill-rule="evenodd" clip-rule="evenodd" d="M20.781 5.469C20.8508 5.53867 20.9063 5.62143 20.9441 5.71255C20.9819 5.80367 21.0013 5.90135 21.0013 6C21.0013 6.09865 20.9819 6.19633 20.9441 6.28745C20.9063 6.37857 20.8508 6.46133 20.781 6.531L10.281 17.031C10.2113 17.1008 10.1286 17.1563 10.0375 17.1941C9.94633 17.2319 9.84865 17.2513 9.75 17.2513C9.65135 17.2513 9.55367 17.2319 9.46255 17.1941C9.37143 17.1563 9.28867 17.1008 9.219 17.031L3.969 11.781C3.82817 11.6402 3.74905 11.4492 3.74905 11.25C3.74905 11.0508 3.82817 10.8598 3.969 10.719C4.10983 10.5782 4.30084 10.499 4.5 10.499C4.69916 10.499 4.89017 10.5782 5.031 10.719L9.75 15.4395L19.719 5.469C19.7887 5.39915 19.8714 5.34374 19.9626 5.30593C20.0537 5.26812 20.1514 5.24866 20.25 5.24866C20.3487 5.24866 20.4463 5.26812 20.5375 5.30593C20.6286 5.34374 20.7113 5.39915 20.781 5.469Z" fill="white"/>
</svg>
